<svg width="50" height="50" viewBox="0 0 50 50" fill="none" xmlns="http://www.w3.org/2000/svg">
<g clip-path="url(#clip0)">
<path fill-rule="evenodd" clip-rule="evenodd" d="M0.14904 22.207C1.47252 10.7369 10.7369 1.47252 22.207 0.14904C37.2064 -1.46854 50 10.2957 50 25.001V43.9708C50 47.353 47.353 50 43.9708 50H25.001C10.2957 50 -1.46854 37.2064 0.14904 22.207ZM25.001 47.353H44.8531C46.1766 47.353 47.353 46.1766 47.353 44.8531V25.001C47.353 12.3544 36.7652 2.20778 23.9716 2.79599C12.6485 3.23715 3.23715 12.6485 2.79599 23.9716C2.20778 36.7652 12.3544 47.353 25.001 47.353ZM37.0597 25.2951V25.7363H42.5006V25.1481C42.2065 25.1481 42.0594 25.1481 41.9124 24.854L37.3538 18.6777C39.7066 16.1778 40.2948 15.7367 41.7653 15.5896V15.0014H36.7655V15.5896L37.2067 15.7367C37.942 15.8837 38.089 16.0308 38.089 16.3249C38.089 16.4719 37.942 16.9131 37.6479 17.2072L34.7068 20.1483V10.1487H30.2952V10.7369C31.1775 10.7369 31.4716 11.178 31.4716 12.0604V23.9716C31.4716 25.001 31.0305 25.4422 30.2952 25.4422V26.0304H35.8832V25.4422C34.8539 25.1481 34.7068 25.001 34.7068 23.9716V21.3247L35.295 20.7365L37.5008 23.8246C37.942 24.4128 38.089 24.7069 38.089 24.854C38.089 25.1481 37.6479 25.2951 37.0597 25.2951ZM28.0894 18.2365C27.7953 17.2072 27.5012 16.766 27.06 16.3249C26.6189 15.8837 25.8836 15.5896 25.2954 15.5896C24.4131 15.5896 23.8249 16.1778 23.8249 16.9131C23.8249 17.6483 24.4131 18.3836 26.0307 18.9718C28.3835 20.0012 29.2658 20.8835 29.2658 22.6481C29.2658 24.7069 27.7953 26.1774 25.7366 26.1774C25.1484 26.1774 23.8249 25.8833 23.2367 25.5892C22.9426 25.4421 22.7955 25.4421 22.6485 25.4421C22.5014 25.4421 22.3543 25.5892 22.0602 26.0304H21.472V22.207H22.0602C22.5014 24.2657 23.6778 25.2951 25.2954 25.2951C26.3248 25.2951 27.06 24.7069 27.06 23.8246C27.06 23.0893 26.4718 22.5011 24.8542 21.7658C22.5014 20.7364 21.472 19.7071 21.472 18.0895C21.472 16.1778 22.9426 14.7073 25.1484 14.7073C25.579 14.7073 25.9308 14.7861 26.3768 14.886L26.3769 14.886C26.5401 14.9226 26.716 14.962 26.913 15.0014C27.3542 15.1484 27.5012 15.1484 27.6483 15.1484C27.9424 15.1484 28.0894 15.0014 28.2365 14.7073H28.6776V18.0895H28.0894V18.2365ZM20.4427 24.8539C19.5603 25.8833 18.8251 26.1774 17.7957 26.1774C16.6193 26.1774 16.1781 25.7362 15.884 24.5598C14.5605 25.7362 13.5312 26.1774 12.2077 26.1774C10.7372 26.1774 9.70779 25.4421 9.70779 23.6775C9.70779 22.6481 10.149 21.7658 11.3254 21.0305C12.2077 20.4423 13.2371 20.0011 16.0311 19.2659V17.6483C16.0311 16.1778 15.5899 15.4425 14.1194 15.4425C13.2371 15.4425 12.6489 15.7366 12.6489 16.3248C12.6489 16.4719 12.6489 16.6189 12.943 16.913C12.9824 17.0312 13.0218 17.1388 13.0583 17.2388L13.0583 17.2388C13.1583 17.5118 13.2371 17.7271 13.2371 17.9424C13.2371 18.6777 12.6489 19.4129 11.6195 19.4129C10.5901 19.4129 10.149 18.8247 10.149 17.7953C10.149 15.8837 11.9136 14.8543 14.5605 14.8543C17.3545 14.8543 19.1192 16.0307 19.1192 17.9424V23.9716C19.1192 24.4127 19.2662 24.5598 19.5603 24.5598C19.7074 24.5598 19.7074 24.5598 19.8545 24.4127L20.1486 24.1186L20.4427 24.8539ZM15.884 20.1482C13.9723 20.5894 13.09 21.6187 13.09 22.9422C13.09 23.9716 13.5312 24.5598 14.2664 24.5598C14.8546 24.5598 15.4429 24.4127 15.884 23.6775V20.1482ZM20.1483 37.0594C19.266 38.0887 18.5307 38.3828 17.5013 38.3828C16.3249 38.3828 15.8837 37.9417 15.5896 36.7653C14.2662 37.9417 13.2368 38.3828 11.9133 38.3828C10.4428 38.3828 9.4134 37.6476 9.4134 35.8829C9.4134 34.8536 9.85456 33.9713 11.031 33.236C11.9133 32.6478 12.9427 32.2066 15.7367 31.4713V29.8538C15.7367 28.3832 15.2955 27.648 13.825 27.648C12.9427 27.648 12.3545 27.9421 12.3545 28.5303C12.3545 28.6773 12.3545 28.8244 12.6486 29.1185C12.688 29.1776 12.7247 29.2314 12.7589 29.2814C12.9794 29.6043 13.0897 29.7658 13.0897 30.1479C13.0897 30.8831 12.5015 31.6184 11.4721 31.6184C10.5898 31.6184 10.0016 31.0302 10.0016 30.0008C10.0016 28.0891 11.7662 27.0598 14.4132 27.0598C17.2072 27.0598 18.9718 28.2362 18.9718 30.1479V36.177C18.9718 36.6182 19.1189 36.7653 19.413 36.7653C19.5601 36.7653 19.5601 36.7653 19.7071 36.6182L20.0012 36.3241L20.1483 37.0594ZM15.5896 32.3537C13.6779 32.7948 12.7956 33.8242 12.7956 35.1477C12.7956 36.177 13.2368 36.7653 13.972 36.7653C14.5603 36.7653 15.1485 36.6182 15.5896 35.8829V32.3537ZM29.7067 29.1184C30.1479 27.942 30.2949 27.795 31.0302 27.795H31.1772V27.3538H27.648V27.942C28.6773 27.942 28.9714 28.0891 28.9714 28.6773C28.9714 28.8926 28.8926 29.1079 28.7927 29.3809C28.7561 29.4808 28.7167 29.5884 28.6773 29.7066L27.0598 33.9712L25.1481 29.2655C25.001 28.8243 25.001 28.6773 25.001 28.5302C25.001 28.0891 25.2951 27.942 25.8833 27.942H26.3245V27.3538H20.4424V27.942C20.8835 27.942 21.0306 28.0891 21.1776 28.2361C21.3247 28.5302 22.207 30.2949 22.6482 31.4713L25.4422 38.3828H26.0304L29.7067 29.1184ZM42.3534 37.0594C41.4711 38.0887 40.7358 38.3828 39.7065 38.3828C38.53 38.3828 38.0889 37.9417 37.7948 36.7653C36.4713 37.9417 35.4419 38.3828 34.1184 38.3828C32.6479 38.3828 31.6185 37.6476 31.6185 35.8829C31.6185 34.8536 32.0597 33.9713 33.2361 33.236C34.1184 32.6478 35.1478 32.2066 37.9418 31.4713V29.8538C37.9418 28.3832 37.5007 27.648 36.0301 27.648C35.1478 27.648 34.5596 27.9421 34.5596 28.5303C34.5596 28.6773 34.5596 28.8244 34.8537 29.1185C34.8931 29.1776 34.9298 29.2314 34.964 29.2813L34.964 29.2814C35.1846 29.6043 35.2949 29.7658 35.2949 30.1479C35.2949 30.8831 34.7067 31.6184 33.6773 31.6184C32.795 31.6184 32.2068 31.0302 32.2068 30.0008C32.2068 28.0891 33.9714 27.0598 36.6183 27.0598C39.4124 27.0598 41.177 28.2362 41.177 30.1479V36.177C41.177 36.6182 41.324 36.7653 41.6181 36.7653C41.7652 36.7653 41.7652 36.7653 41.9123 36.6182L42.2064 36.3241L42.3534 37.0594ZM37.7948 32.3537C35.8831 32.7948 35.0008 33.8242 35.0008 35.1477C35.0008 36.177 35.4419 36.7653 36.1772 36.7653C36.7654 36.7653 37.3536 36.6182 37.7948 35.8829V32.3537Z" fill="#49C5B1"/>
</g>
<defs>
<clipPath id="clip0">
<rect width="50" height="50" fill="white"/>
</clipPath>
</defs>
</svg>
